<?xml version="1.0" encoding="UTF-8"?>
<svg id="Warstwa_1" data-name="Warstwa 1" xmlns="http://www.w3.org/2000/svg" viewBox="0 0 560.39 546.54">
  <defs>
    <style>
      .cls-1, .cls-2, .cls-3, .cls-4, .cls-5, .cls-6, .cls-7, .cls-8, .cls-9, .cls-10, .cls-11, .cls-12 {
        fill-rule: evenodd;
      }

      .cls-1, .cls-13, .cls-5, .cls-14, .cls-6, .cls-7, .cls-8, .cls-9, .cls-10, .cls-12, .cls-15, .cls-16 {
        stroke: #000;
      }

      .cls-2, .cls-5 {
        stroke-miterlimit: 4;
      }

      .cls-2, .cls-11 {
        fill: #fdaf17;
        stroke: #010000;
      }

      .cls-13 {
        fill: #feffff;
      }

      .cls-13, .cls-15, .cls-16, .cls-17 {
        stroke-linecap: round;
      }

      .cls-3 {
        fill: #ffc800;
      }

      .cls-4, .cls-7 {
        fill: #00ac4e;
      }

      .cls-14, .cls-16, .cls-17 {
        fill: none;
      }

      .cls-6 {
        fill: #00ab4e;
      }

      .cls-8 {
        fill: #252122;
      }

      .cls-9 {
        fill: #0e8d49;
      }

      .cls-10 {
        fill: #d6ac00;
      }

      .cls-12 {
        fill: #fff;
      }

      .cls-17 {
        stroke: #504e4b;
      }
    </style>
  </defs>
  <g>
    <path d="m0,375.38v-85.52h15.88v85.52H0Zm14.05-20.16l-.73-18.81,44.71-46.55h17.96l-37.26,39.58-8.8,9.65-15.88,16.13Zm45.57,20.16l-32.86-38.97,10.63-11.61,40.93,50.58h-18.69Z"/>
    <path d="m86.5,375.38v-65.24h14.54v17.96l-1.71-5.25c1.87-4.4,4.93-7.76,9.16-10.08,4.23-2.32,9.41-3.48,15.52-3.48v14.54c-.57-.08-1.14-.14-1.71-.18-.57-.04-1.1-.06-1.59-.06-5.86,0-10.51,1.67-13.93,5.01-3.42,3.34-5.13,8.43-5.13,15.27v31.52h-15.15Z"/>
    <path d="m165.3,376.23c-5.54,0-10.43-1.04-14.66-3.12-4.24-2.08-7.56-5.25-9.96-9.53-2.4-4.28-3.6-9.67-3.6-16.19v-37.26h15.39v35.31c0,5.78,1.34,10.12,4.03,13.01,2.69,2.89,6.43,4.34,11.24,4.34,3.58,0,6.72-.73,9.41-2.2,2.69-1.47,4.76-3.67,6.23-6.6,1.47-2.93,2.2-6.56,2.2-10.87v-32.99h15.27v65.24h-14.54v-17.71l2.57,5.5c-2.2,4.15-5.42,7.37-9.65,9.65-4.24,2.28-8.88,3.42-13.93,3.42Z"/>
    <path d="m241.16,376.23c-5.54,0-10.79-.71-15.76-2.14-4.97-1.42-8.96-3.16-11.97-5.19l5.86-11.61c2.93,1.87,6.43,3.4,10.51,4.58,4.07,1.18,8.19,1.77,12.34,1.77,4.72,0,8.16-.63,10.32-1.89,2.16-1.26,3.24-2.99,3.24-5.19,0-1.79-.73-3.16-2.2-4.09-1.47-.94-3.38-1.65-5.74-2.14-2.36-.49-4.99-.94-7.88-1.34-2.89-.41-5.78-.96-8.67-1.65-2.89-.69-5.52-1.71-7.88-3.05-2.36-1.34-4.28-3.16-5.74-5.44-1.47-2.28-2.2-5.33-2.2-9.16,0-4.07,1.18-7.64,3.54-10.69,2.36-3.05,5.68-5.44,9.96-7.15,4.28-1.71,9.35-2.57,15.21-2.57,4.32,0,8.74.51,13.26,1.53,4.52,1.02,8.29,2.42,11.3,4.21l-5.99,11.61c-3.01-1.79-6.11-3.03-9.28-3.73-3.18-.69-6.31-1.04-9.41-1.04-4.56,0-7.98.67-10.26,2.02-2.28,1.34-3.42,3.08-3.42,5.19,0,1.95.73,3.42,2.2,4.4,1.47.98,3.38,1.73,5.74,2.26,2.36.53,4.99,1.02,7.88,1.47,2.89.45,5.76,1.02,8.61,1.71,2.85.69,5.48,1.67,7.88,2.93,2.4,1.26,4.34,3.04,5.8,5.31,1.47,2.28,2.2,5.25,2.2,8.92,0,4.15-1.2,7.72-3.6,10.69-2.4,2.97-5.78,5.29-10.14,6.96-4.36,1.67-9.59,2.5-15.7,2.5Z"/>
    <path d="m278.42,375.38v-9.65l40.19-48.62,2.93,5.25h-42.39v-12.22h54.49v9.65l-40.19,48.62-3.05-5.25h44.35v12.22h-56.32Z"/>
    <path d="m353.07,399.93c-3.26,0-6.48-.53-9.65-1.59-3.18-1.06-5.78-2.53-7.82-4.4l5.99-11.12c1.55,1.3,3.28,2.36,5.19,3.18,1.91.81,3.93,1.22,6.05,1.22,2.77,0,5.01-.69,6.72-2.08,1.71-1.39,3.3-3.75,4.76-7.09l3.67-8.31,1.47-1.95,24.56-57.66h14.66l-30.54,70.61c-2.04,4.8-4.3,8.61-6.78,11.42-2.49,2.81-5.25,4.8-8.31,5.99-3.05,1.18-6.37,1.77-9.96,1.77Zm13.32-22.23l-29.44-67.56h15.76l24.07,56.32-10.38,11.24Z"/>
    <path d="m455.2,309.28c5.29,0,9.96,1.02,13.99,3.05,4.03,2.04,7.25,5.17,9.65,9.41,2.4,4.24,3.6,9.65,3.6,16.25v37.38h-15.27v-35.43c0-5.78-1.34-10.1-4.03-12.95-2.69-2.85-6.52-4.28-11.48-4.28-3.58,0-6.76.73-9.53,2.2-2.77,1.47-4.91,3.65-6.41,6.54-1.51,2.89-2.26,6.54-2.26,10.93v32.99h-15.15v-65.24h14.54v17.72l-2.57-5.5c2.2-4.15,5.48-7.37,9.83-9.65,4.36-2.28,9.39-3.42,15.09-3.42Z"/>
    <path d="m0,521.98v-85.52h15.88v85.52H0Zm14.05-20.16l-.73-18.81,44.71-46.55h17.96l-37.26,39.58-8.8,9.65-15.88,16.13Zm45.57,20.16l-32.86-38.97,10.63-11.61,40.93,50.58h-18.69Z"/>
    <path d="m86.5,521.98v-65.24h14.54v17.96l-1.71-5.25c1.87-4.4,4.93-7.76,9.16-10.08,4.23-2.32,9.41-3.48,15.52-3.48v14.54c-.57-.08-1.14-.14-1.71-.18-.57-.04-1.1-.06-1.59-.06-5.86,0-10.51,1.67-13.93,5.01-3.42,3.34-5.13,8.43-5.13,15.27v31.52h-15.15Z"/>
    <path d="m152.1,522.84c-4.89,0-9.16-.84-12.83-2.5-3.67-1.67-6.5-3.99-8.49-6.96-2-2.97-2.99-6.33-2.99-10.08s.87-6.96,2.63-9.9c1.75-2.93,4.62-5.25,8.61-6.96,3.99-1.71,9.28-2.57,15.88-2.57h18.94v10.14h-17.84c-5.13,0-8.61.84-10.45,2.5-1.83,1.67-2.75,3.77-2.75,6.29,0,2.69,1.1,4.85,3.3,6.48,2.2,1.63,5.25,2.44,9.16,2.44s7.1-.85,10.08-2.57c2.97-1.71,5.15-4.23,6.54-7.57l2.44,9.16c-1.47,3.83-4.07,6.8-7.82,8.92-3.75,2.12-8.55,3.18-14.42,3.18Zm20.52-.85v-13.32l-.73-2.69v-23.09c0-4.48-1.36-7.96-4.09-10.45-2.73-2.48-6.86-3.73-12.4-3.73-3.58,0-7.13.57-10.63,1.71-3.5,1.14-6.52,2.73-9.04,4.76l-5.99-11.12c3.58-2.69,7.78-4.72,12.58-6.11,4.8-1.38,9.81-2.08,15.03-2.08,9.53,0,16.86,2.28,21.99,6.84,5.13,4.56,7.7,11.57,7.7,21.01v38.24h-14.42Z"/>
    <path d="m199.75,546.54c-2.77,0-5.44-.33-8-.98-2.57-.65-4.74-1.59-6.54-2.81l4.4-11.36c2.36,1.71,5.34,2.57,8.92,2.57,2.77,0,4.93-.88,6.48-2.63,1.55-1.75,2.32-4.34,2.32-7.76v-66.83h15.27v66.46c0,7.17-1.98,12.85-5.93,17.04-3.95,4.19-9.59,6.29-16.92,6.29Zm15.15-100.55c-2.85,0-5.19-.9-7.03-2.69-1.83-1.79-2.75-3.99-2.75-6.6,0-2.44.92-4.56,2.75-6.35,1.83-1.79,4.17-2.69,7.03-2.69s5.19.84,7.02,2.5c1.83,1.67,2.75,3.81,2.75,6.41s-.9,4.83-2.69,6.66c-1.79,1.83-4.15,2.75-7.09,2.75Z"/>
    <path d="m273.29,522.84c-7.25,0-13.58-1.44-19-4.34-5.42-2.89-9.61-6.84-12.58-11.85-2.97-5.01-4.46-10.77-4.46-17.29s1.44-12.28,4.34-17.29c2.89-5.01,6.88-8.96,11.97-11.85,5.09-2.89,10.89-4.34,17.41-4.34s12.01,1.4,16.98,4.21c4.97,2.81,8.88,6.74,11.73,11.79,2.85,5.05,4.28,11.04,4.28,17.96,0,.57-.02,1.28-.06,2.14-.04.86-.1,1.61-.18,2.26h-54.37v-10.14h46.3l-6.11,3.18c.08-3.67-.67-6.94-2.26-9.83-1.59-2.89-3.77-5.13-6.54-6.72-2.77-1.59-6.03-2.38-9.77-2.38s-6.94.79-9.83,2.38c-2.89,1.59-5.11,3.85-6.66,6.78-1.55,2.93-2.32,6.31-2.32,10.14v2.44c0,3.91.87,7.37,2.63,10.38,1.75,3.01,4.26,5.36,7.51,7.02,3.26,1.67,7.04,2.5,11.36,2.5,3.67,0,6.96-.61,9.9-1.83,2.93-1.22,5.54-3.01,7.82-5.38l8.31,9.53c-3.01,3.42-6.74,6.03-11.18,7.82-4.44,1.79-9.51,2.69-15.21,2.69Z"/>
    <path d="m355.63,455.89c5.29,0,9.96,1.02,13.99,3.05,4.03,2.04,7.25,5.17,9.65,9.41,2.4,4.24,3.6,9.65,3.6,16.25v37.38h-15.27v-35.43c0-5.78-1.34-10.1-4.03-12.95-2.69-2.85-6.52-4.28-11.48-4.28-3.58,0-6.76.73-9.53,2.2-2.77,1.47-4.91,3.65-6.41,6.54-1.51,2.89-2.26,6.54-2.26,10.93v32.99h-15.15v-65.24h14.54v17.72l-2.57-5.5c2.2-4.15,5.48-7.37,9.83-9.65,4.36-2.28,9.39-3.42,15.09-3.42Zm-15.03-8.06l16.49-16.74h18.08l-21.38,16.74h-13.19Z"/>
    <path d="m422.58,522.84c-5.54,0-10.79-.71-15.76-2.14-4.97-1.42-8.96-3.16-11.97-5.19l5.86-11.61c2.93,1.87,6.43,3.4,10.51,4.58,4.07,1.18,8.19,1.77,12.34,1.77,4.72,0,8.16-.63,10.32-1.89,2.16-1.26,3.24-2.99,3.24-5.19,0-1.79-.73-3.16-2.2-4.09-1.47-.94-3.38-1.65-5.74-2.14-2.36-.49-4.99-.94-7.88-1.34-2.89-.41-5.78-.96-8.67-1.65-2.89-.69-5.52-1.71-7.88-3.05-2.36-1.34-4.28-3.16-5.74-5.44-1.47-2.28-2.2-5.33-2.2-9.16,0-4.07,1.18-7.64,3.54-10.69,2.36-3.05,5.68-5.44,9.96-7.15,4.28-1.71,9.35-2.57,15.21-2.57,4.32,0,8.74.51,13.26,1.53,4.52,1.02,8.29,2.42,11.3,4.21l-5.99,11.61c-3.01-1.79-6.11-3.03-9.28-3.73-3.18-.69-6.31-1.04-9.41-1.04-4.56,0-7.98.67-10.26,2.02-2.28,1.34-3.42,3.08-3.42,5.19,0,1.95.73,3.42,2.2,4.4,1.47.98,3.38,1.73,5.74,2.26,2.36.53,4.99,1.02,7.88,1.47,2.89.45,5.76,1.02,8.61,1.71,2.85.69,5.48,1.67,7.88,2.93,2.4,1.26,4.34,3.04,5.8,5.31,1.47,2.28,2.2,5.25,2.2,8.92,0,4.15-1.2,7.72-3.6,10.69-2.4,2.97-5.78,5.29-10.14,6.96-4.36,1.67-9.59,2.5-15.7,2.5Z"/>
    <path d="m465.34,521.98v-90.65h15.15v90.65h-15.15Zm12.34-14.54l.37-19.18,34.09-31.52h18.33l-28.95,28.95-8.19,6.84-15.64,14.9Zm36.9,14.54l-24.07-29.44,9.65-12.22,32.86,41.66h-18.45Z"/>
    <path d="m550.61,445.99c-2.85,0-5.19-.9-7.02-2.69-1.83-1.79-2.75-3.99-2.75-6.6,0-2.44.92-4.56,2.75-6.35,1.83-1.79,4.17-2.69,7.02-2.69s5.19.84,7.03,2.5c1.83,1.67,2.75,3.81,2.75,6.41s-.9,4.83-2.69,6.66c-1.79,1.83-4.15,2.75-7.09,2.75Zm-7.57,75.99v-65.24h15.15v65.24h-15.15Z"/>
  </g>
  <g id="g3342">
    <g id="g3141">
      <path id="path1334" class="cls-3" d="m102.72,0L0,.52v154.33c4.25,50.02,47.9,97.07,102.72,95.49V0Z"/>
      <path id="path2482" class="cls-6" d="m43.99,58.53l.15-7.99c.15-3.22-1.76-3.6-3.25-2.51-1.65,1.21-2.98.13-2.37-4.29.87-5.63-2.94-6.59-4.14-4.14-1.85,3.08-3.14.46-2.51-2.96.64-5.78-3.05-7.28-5.03-3.84-2.02,2.65-3.19,2.12-3.7-.89-.13-2.69-2.59-2.67-5.03-2.66-2.68.43-4.17,2.04-4.88,4.44-.58,3.22.8,4.56,3.11,5.03,2.74-.1,4.55,1.97.89,3.99-3.21,2.02-3.41,5.14,3.25,4.88,6.46-1.1,5.19,1.86,3.55,2.37-3.6,1.92-.22,4.97,5.03,4.14,5.2-.63,6.48,1.59,4.58,2.37-2.36,2.16-.06,4.11,3.99,3.11,2.17-.44,4.33-.86,6.36-1.04Z"/>
      <path id="path2486" class="cls-6" d="m43.94,113.05l.16-8.73c.17-3.52-1.95-3.94-3.59-2.75-1.83,1.32-3.29.14-2.61-4.69.96-6.15-3.24-7.2-4.57-4.52-2.05,3.36-3.46.5-2.78-3.23.71-6.31-3.37-7.96-5.55-4.2-2.23,2.9-3.52,2.32-4.08-.97-.15-2.94-2.86-2.91-5.55-2.91-2.96.47-4.61,2.23-5.39,4.85-.65,3.52.88,4.98,3.43,5.49,3.03-.11,5.03,2.16.98,4.36-3.54,2.21-3.76,5.61,3.59,5.33,7.14-1.21,5.73,2.04,3.92,2.59-3.97,2.1-.25,5.43,5.55,4.52,5.75-.69,7.16,1.74,5.06,2.59-2.61,2.36-.07,4.49,4.41,3.39,2.4-.49,4.78-.94,7.02-1.13Z"/>
      <path id="path2488" class="cls-6" d="m44.46,154.37l-2.39-8.01c-.87-3.26-2.95-3.05-4.13-1.5-1.31,1.72-3.01,1.05-3.78-3.54-.9-5.88-5.1-5.67-5.55-2.85-.92,3.64-3.06,1.42-3.51-2.17-1.18-5.96-5.43-6.32-6.37-2.28-1.23,3.27-2.59,3.1-4.06.26-.99-2.64-3.5-1.86-5.99-1.1-2.6,1.25-3.62,3.32-3.58,5.93.42,3.39,2.27,4.3,4.78,4.05,2.77-.95,5.28.56,2.18,3.71-2.64,3.01-1.85,6.17,4.88,3.86,6.26-3.1,5.9.25,4.38,1.26-3.07,3.02,1.35,5.02,6.46,2.58,5.12-2.24,7.13-.42,5.44.94-1.73,2.88,1.24,4.12,5.07,1.86,2.08-1.11,4.15-2.2,6.18-3Z"/>
      <path id="path2490" class="cls-6" d="m57.13,60.5l1.3-7.88c.43-3.2,2.39-3.23,3.65-1.88,1.41,1.49,2.91.66,3.1-3.79.17-5.69,4.08-5.95,4.82-3.32,1.27,3.36,3,1.02,3.01-2.45.41-5.8,4.31-6.61,5.64-2.87,1.51,2.97,2.76,2.66,3.8-.2.62-2.62,3.03-2.15,5.43-1.71,2.56.91,3.74,2.76,4,5.25,0,3.27-1.61,4.34-3.96,4.38-2.68-.6-4.83,1.12-1.59,3.77,2.79,2.57,2.42,5.67-4.08,4.21-6.16-2.25-5.44.9-3.92,1.69,3.19,2.54-.68,4.93-5.69,3.16-5-1.56-6.66.39-4.94,1.5,1.93,2.55-.68,4.05-4.49,2.33-2.05-.83-4.1-1.63-6.07-2.17Z"/>
      <path id="path2492" class="cls-6" d="m60.69,108.64l.58-8.71c.13-3.52,2.28-3.76,3.81-2.43,1.71,1.48,3.26.42,3-4.45-.43-6.21,3.85-6.9,4.94-4.12,1.75,3.53,3.41.79,3.04-2.98-.17-6.35,4.03-7.64,5.89-3.71,1.98,3.08,3.31,2.61,4.15-.62.4-2.91,3.1-2.66,5.78-2.42,2.91.72,4.4,2.61,4.96,5.29.34,3.56-1.31,4.89-3.89,5.18-3.01-.37-5.19,1.72-1.35,4.26,3.34,2.5,3.27,5.91-4.04,5.01-7.01-1.81-5.89,1.54-4.13,2.24,3.78,2.43-.22,5.43-5.92,4.03-5.67-1.18-7.28,1.12-5.27,2.14,2.4,2.57-.32,4.48-4.68,3-2.35-.69-4.68-1.35-6.9-1.73Z"/>
      <path id="path2221" class="cls-7" d="m49.69,50.88l-.02,12.35c-9.8-10.81-19.64-21.99-31.95-29.38,11.13,9.9,20.92,20.46,30.61,31.08l-4.93-2.72-1.16,1.26c2.51,1.87,6.33,3.31,5.81,6.19l-3-1.16-.39,1.55c1.81,1.05,3.85,1.93,3.19,4.74l-.1,6.97-1.26,1.16-5.23-5.13-1.16,1.65,6.48,6.87-4.26-2.03-.48,1.45c2.67,1.51,5.45,2.88,6,6.87l-.87,22.93c-9.24-9.48-19.33-20.74-30.29-28.16l30.68,31.74-3.68-2.52-1.45,1.45c2.95.97,4.97,3.07,4.65,8.03l.1,4.45-5.71-3.97-.48,2.42,6.68,4.94-4.35-.87-.77,1.55c2.66.29,4.69,1.44,4.45,5.71l-.19,13.45c-11.58-6.1-23.16-10.29-34.74-14.23l31.84,15.97,2.42,4.65v15.87c-.29,6.78-2.32,19.83-5.52,20.03l-3.39.29c-1.25,1.11-2.66.95-4.16,0-3.08-2.58-4.7-.98-6,1.55,1.41-.74,2.79-1.64,4.45-.39l3-.29c-4.98.74-3.75,3.77-4.16,6.19,1.84-4.22,4.93-4.02,7.74-4.84,5.28,1.17,6.27-2.24,7.84-5.03-1.22,2.73-1.35,6.22-5.71,6.77-4.54-.49-4.76,2.14-4.74,4.94.51-3.02,4.35-4.04,7.26-5.61-3.07,2.5-4.54,4.79-3.48,6.77,1.34-2.19,2.51-4.62,4.84-5.32,2.17-1.06,3.17-3.28,4.35-5.32.44,1.98,1.16,4.03-.39,5.52-1.05,2.32-.1,3.97.29,5.81.49-3.77,2.44-5.6,4.45-7.35-2.14,3.03-.88,4.79,1.06,6.29-.37-2.14-.36-4.18,1.06-5.81-.3-2.24.4-3.82,1.65-5.03,1.9,3.88,2.22,8.29,2.61,12.68.54-1.68,1.53-3.17.87-5.32,2.15.85,3.42,2.81,4.55,4.94.37-4.33-4.91-6.45-5.23-12.29,1.11,2.13.85,5.86,4.55,4.94,2.97-.02,3.5,1.52,3.68,3.29-.68,1.82.43,2.75,2.32,3.29-.74-1.44-1.35-2.95-1.06-4.65,1.89.13,2.64,3.95,4.45,4.65.85.11,1.52.04,1.35-.87-2.32-1.09-3.18-5.68-5.32-5.52-2.17-.73-3.5-2.09-4.65-3.58,3.68-2.21,5.97-.69,8.13,1.16,2.14,2.22,6.06,3.69,5.42,7.06l.87.1.77-2.42c1.05,1.79,2.05,3.59,4.35,5.13l1.74-.48c-1.65-1.38-2.83-2.94-3.19-4.84-.58-1.07-.85-2.39-2.9-2.23-2.73-.8-4.02-2.31-5.23-3.87-2.06-2.48-4.74-3.26-7.84-2.9-7.1-.29-5.04-5.16-6.58-8.23l.02-18.82c1.3-4.34,3.98-5.91,6.71-7.39-2.93-.53-5.78-.3-8.35,3.15l-.27-27.64c1.77-4.13,4.22-6.56,6.71-8.9l-1.23-2.74-5.2,5.88-1.51-.68c-1.54-9.34,2.52-10.83,6.3-12.73l-.68-2.19-5.34,3.7c9.38-11.69,19.97-22.65,32.98-32.16-11.68,6.84-24.94,15.99-34.9,29.01v-24.22c.99-3.15,3.15-4.36,5.2-5.75l-1.09-1.78-3.56,1.64,8.07-7.25-1.23-2.33-8.9,7.53.41-9.58c.52-2.71,2.11-3.25,3.28-4.65l-.96-1.92-2.6,1.92c9.83-10.91,22.65-18.41,34.9-26.55-14.03,6.5-27.56,13.64-37.64,25.18l.68-15.05h-2.37Z"/>
      <path id="path2494" class="cls-6" d="m58.9,152.98l1.75-8.17c.61-3.32,2.7-3.27,4-1.82,1.44,1.61,3.08.81,3.5-3.83.44-5.93,4.64-6.05,5.31-3.27,1.2,3.56,3.17,1.18,3.33-2.44.71-6.03,4.92-6.72,6.17-2.77,1.48,3.16,2.83,2.89,4.07-.06.78-2.71,3.34-2.13,5.89-1.57,2.69,1.05,3.87,3.03,4.03,5.63-.16,3.41-1.93,4.47-4.44,4.41-2.84-.73-5.22.97-1.88,3.87,2.87,2.79,2.33,6.01-4.56,4.23-6.49-2.6-5.86.72-4.27,1.6,3.3,2.78-.95,5.11-6.24,3.07-5.28-1.83-7.14.14-5.35,1.37,1.95,2.74-.92,4.2-4.91,2.25-2.16-.95-4.31-1.87-6.39-2.5Z"/>
      <path id="path2225" class="cls-7" d="m54.94,155.72c10.28-8.69,22.92-14.08,34.9-20.39-12,7.07-23.74,14.34-33.94,22.85"/>
      <path id="path2293" class="cls-6" d="m45.2,42.8l12.52.4c-.08-5.8,2.15-16.28-5.67-17.14-7.73.76-6.49,9.29-6.85,16.74Z"/>
      <path id="path2227" class="cls-9" d="m43.3,42.81h16.4c-.33,4.58-2.01,8.53-8.82,8.72-7.79-.62-7.46-5.7-7.57-8.72Z"/>
      <path id="path2229" class="cls-9" d="m55.66,42.93l3.18,3.45"/>
      <path id="path2231" class="cls-9" d="m51.78,42.95l5.87,5.7"/>
      <path id="path2233" class="cls-9" d="m47.87,42.71l7.67,7.67"/>
      <path id="path2235" class="cls-9" d="m44.36,42.85l8.28,8.37"/>
      <path id="path2239" class="cls-9" d="m43.4,44.99l5.71,6.12"/>
      <path id="path2241" class="cls-9" d="m58.49,42.71l-8.77,8.46"/>
      <path id="path2243" class="cls-9" d="m55.02,42.84l-7.84,7.63"/>
      <path id="path2245" class="cls-9" d="m51.74,42.84l-6.47,6.2"/>
      <path id="path2247" class="cls-9" d="m47.97,42.71l-4.15,4.25"/>
      <path id="path2249" class="cls-9" d="m44.52,42.89l-1.22,1.47"/>
      <path id="path2291" class="cls-9" d="m59.18,45.47l-6.02,5.75"/>
      <path id="path2295" class="cls-15" d="m52.84,25.33c0,.33-.3.59-.66.59s-.66-.27-.66-.59.3-.59.66-.59.66.27.66.59Z"/>
      <path id="path2316" class="cls-6" d="m29.3,79.82l8.44-11.06c-4.76-3.31-11.84-11.42-17.6-4.87-4.39,7.41,3.35,11.26,9.16,15.93Z"/>
      <g id="g3070">
        <path id="path2320" class="cls-9" d="m28.62,80.8l9.56-13.32c3.53,2.94,5.76,6.61,1.94,12.25-5.05,5.96-8.98,2.73-11.5,1.07Z"/>
        <path id="path2322" class="cls-9" d="m35.92,70.83l4.66-.57"/>
        <path id="path2324" class="cls-9" d="m33.68,74l8.05-1.45"/>
        <path id="path2326" class="cls-9" d="m31.2,77.03l10.7-1.76"/>
        <path id="path2328" class="cls-9" d="m29.27,79.97l11.63-1.85"/>
        <path id="path2332" class="cls-9" d="m30.45,81.99l8.3-1.07"/>
        <path id="path2334" class="cls-9" d="m37.4,68.41l1.75,12.06"/>
        <path id="path2336" class="cls-9" d="m35.48,71.3l1.63,10.81"/>
        <path id="path2338" class="cls-9" d="m33.56,73.96l1.27,8.87"/>
        <path id="path2340" class="cls-9" d="m31.26,76.95l1.04,5.85"/>
        <path id="path2342" class="cls-9" d="m29.4,79.86l.49,1.85"/>
        <path id="path2344" class="cls-9" d="m40.04,69.46l1.16,8.24"/>
      </g>
      <path id="path2348" class="cls-6" d="m74.26,78.72l-6.52-12.88c5.34-2.28,13.82-8.88,18.45-1.09,3.1,8.36-5.3,10.55-11.93,13.97Z"/>
      <path id="path2352" class="cls-9" d="m74.59,79.64l-6.86-14.89c-4.02,2.21-6.91,5.4-4.23,11.66,3.82,6.81,8.3,4.39,11.09,3.24Z"/>
      <path id="path2354" class="cls-9" d="m69.32,68.46l-4.47-1.45"/>
      <path id="path2356" class="cls-9" d="m70.91,72l-7.63-2.95"/>
      <path id="path2358" class="cls-9" d="m72.77,75.45l-10.17-3.76"/>
      <path id="path2360" class="cls-9" d="m74.11,78.69l-11.06-4.03"/>
      <path id="path2364" class="cls-9" d="m72.57,80.45l-7.95-2.62"/>
      <path id="path2366" class="cls-9" d="m68.33,65.8l-4.01,11.51"/>
      <path id="path2368" class="cls-9" d="m69.66,69l-3.65,10.31"/>
      <path id="path2370" class="cls-9" d="m71.04,71.98l-2.93,8.47"/>
      <path id="path2372" class="cls-9" d="m72.73,75.35l-2.13,5.55"/>
      <path id="path2374" class="cls-9" d="m74,78.56l-.83,1.72"/>
      <path id="path2376" class="cls-9" d="m65.53,66.33l-2.7,7.87"/>
      <path id="path2380" class="cls-6" d="m75.01,127.45l-6.12-12.49c5.34-2.26,13.91-8.75,18.29-1.2,2.85,8.12-5.52,10.31-12.17,13.69Z"/>
      <g id="g3126">
        <path id="path2384" class="cls-9" d="m75.47,128.58l-6.71-14.96c-4.04,2.17-6.96,5.33-4.34,11.61,3.75,6.85,8.25,4.47,11.05,3.34Z"/>
        <path id="path2386" class="cls-9" d="m70.3,117.36l-4.45-1.49"/>
        <path id="path2388" class="cls-9" d="m71.87,120.91l-7.6-3.03"/>
        <path id="path2390" class="cls-9" d="m73.69,124.37l-10.14-3.86"/>
        <path id="path2392" class="cls-9" d="m75,127.63l-11.02-4.13"/>
        <path id="path2396" class="cls-9" d="m73.44,129.38l-7.92-2.7"/>
        <path id="path2398" class="cls-9" d="m69.34,114.68l-4.12,11.47"/>
        <path id="path2400" class="cls-9" d="m70.65,117.9l-3.75,10.27"/>
        <path id="path2402" class="cls-9" d="m71.99,120.89l-3.01,8.44"/>
        <path id="path2404" class="cls-9" d="m73.65,124.28l-2.18,5.53"/>
        <path id="path2406" class="cls-9" d="m74.89,127.5l-.84,1.72"/>
        <path id="path2408" class="cls-9" d="m66.54,115.19l-2.78,7.85"/>
      </g>
      <path id="path2444" class="cls-6" d="m29.79,131.59l6.12-12.49c-5.34-2.26-13.91-8.75-18.29-1.2-2.85,8.12,5.52,10.31,12.17,13.69Z"/>
      <g id="g3098">
        <path id="path2448" class="cls-9" d="m29.34,132.72l6.71-14.96c4.04,2.17,6.96,5.33,4.34,11.61-3.75,6.85-8.25,4.47-11.05,3.34Z"/>
        <path id="path2450" class="cls-9" d="m34.5,121.5l4.45-1.49"/>
        <path id="path2452" class="cls-9" d="m32.94,125.05l7.6-3.03"/>
        <path id="path2454" class="cls-9" d="m31.12,128.51l10.14-3.86"/>
        <path id="path2456" class="cls-9" d="m29.81,131.77l11.02-4.13"/>
        <path id="path2460" class="cls-9" d="m31.37,133.52l7.92-2.7"/>
        <path id="path2462" class="cls-9" d="m35.47,118.82l4.12,11.47"/>
        <path id="path2464" class="cls-9" d="m34.16,122.04l3.75,10.27"/>
        <path id="path2466" class="cls-9" d="m32.82,125.03l3.01,8.44"/>
        <path id="path2468" class="cls-9" d="m31.16,128.42l2.18,5.53"/>
        <path id="path2470" class="cls-9" d="m29.92,131.64l.84,1.72"/>
        <path id="path2472" class="cls-9" d="m38.27,119.33l2.78,7.85"/>
      </g>
      <path id="path2474" class="cls-15" d="m87.6,64.67c0,.33-.3.59-.66.59s-.66-.27-.66-.59.3-.59.66-.59.66.27.66.59Z"/>
      <path id="path2476" class="cls-15" d="m20.46,63.19c0,.33-.3.59-.66.59s-.66-.27-.66-.59.3-.59.66-.59.66.27.66.59Z"/>
      <path id="path2478" class="cls-15" d="m18.39,117.31c0,.33-.3.59-.66.59s-.66-.27-.66-.59.3-.59.66-.59.66.27.66.59Z"/>
      <path id="path2480" class="cls-15" d="m88.04,114.5c0,.33-.3.59-.66.59s-.66-.27-.66-.59.3-.59.66-.59.66.27.66.59Z"/>
      <path id="path2484" class="cls-14" d="m31.72,36.06h-.15"/>
    </g>
    <g id="g3300">
      <path id="path2209" class="cls-4" d="m102.59,0l102.72.52v154.33c-4.25,50.02-47.9,97.07-102.72,95.49V0Z"/>
      <g id="g3233">
        <g id="g2640">
          <path id="path2594" class="cls-12" d="m145.19,124.01c.76-10.82-5.25-17.77-9.53-25.71-8.08-14.95-1.42-26.26,5.68-30.62,4.28-3.64,4.84-9.3-1.64-11.27l-32.74-8.76h25.9c1.37-1.51,3.31-2.66,5.97-2.64.53,2.74,2.34,5.44,6.45,7.16,6.51,1.45,10.42,10.03,3.47,18.3-6.23,5.68-10.3,12.01-5.59,20.99,2.28,2.7,4.56,1.96,6.84-.19,8.09-7.62,11.4-6.35,18.87-1.35,5.33,2.95,10,7.33,14.01,12.56,12.68,11.8,20.86,51.19,16.9,62.94-.35-.49-.79-.87-.75-1.85,1.72-12.85-3.66-23.2-7.37-34.15,3.92,11.23,8.29,22.4,6.61,34.47-.88,1.98-1.46,2.46-2.06,3.04-3.75-10.13-8.3-19.39-18.65-24.07-6.97-4.12-13.75-8.41-19.3-14.53l-1.73,3.9-1.3-7.91c.15,3.57-.37,6.69-1.95,9.11.81-3.29.15-6.58-.76-9.87-.39,3.11-1.7,4.68-2.93,6.4.9-2.68.89-5.59.65-8.56-.57,1.82-1.28,3.45-2.71,4.12,1.2-3.11.31-6.22-.76-9.32l-1.6,7.82Z"/>
          <path id="path2596" class="cls-8" d="m138.66,44.86c7.35-.94,10.34,3.3,13.33,7.48,1.97,3.5,4.24,8.14,8.78,9.11-2.02,1.29-3.67-.07-5.42-.65l4.44,3.58c-2.55-.34-5.11-.54-7.37-3.69-.27-4.37-3-6.9-6.72-8.67-4.29-1.09-6.21-3.76-7.05-7.15Z"/>
          <path id="path2604" class="cls-8" d="m193.05,133.47l-1.67-4.03c-.26.92-.19,1.25.46,3.98-3.92-1.22-4.66-4.7-6.54-7.38.53,2.01,1.09,4.02,2.72,6.18-4.28-.82-4.81-3.9-6.81-6.99.48,1.53.37,2.76,1.45,4.29-4.46-1.58-5.35-4.68-6.54-7.66-.37,2.14.71,3.46,1.39,5-3.7.68-3.96-3.79-5.29-6.67-.32,1.15.15,2.93.61,4.71-3.3-1.67-3.63-4.19-4.51-7.07-.24,1.34-.3,2.77.42,4.59-3.51-1.22-4.49-4.97-5.85-8.35-.1,1.57.13,2.69.71,5.3-5.93-5.16-7.93-11.13-7.11-19.08,1.09-5.19,4.43-6.58,10.16-4.59-2.43-1.92-7.39-5.74-12.01-1.71-3.34,4.7-2.05,8.63-1.08,12.57l-3.84-2.13,5.76,3.97c.69,1.09.47,1.57.28,2.06l-2.53-1.93,4.46,3.86c.03.9-.03,1.63-.6,1.33l-3.5-2.78,4.95,4.83c.49,1.07-.12,1.13-.72,1.21l-2.17-1.69c1.15,2.51,4.17,4.44,5.55,6.76.32.72,0,.97-.48,1.09-.84-1.24-1.69-1.73-2.53-2.17l3.26,4.95c.23,1.51-.36,1.88-1.45,1.57-1.35-2.8-5.37-8.38-5.67-7.72,1.61,2.2,3.14,4.45,3.26,7.84-.44.58-1.11.31-1.56,0l.62,4.12,1.64-3.5c2.31,2.3,4.73,4.52,7.34,6.62,1.56,1.19,2.19,1.36,3.77,2.55l8.93,5.56c9.02,4.03,14.7,13.49,18.05,23.41.6-.59,1.12-1.29,1.51-2.19-.38.15,1.49.18,1.25-.39,1.22-9.75-.51-14.9-2.86-21.49,0,0-2.92-7.48-3.18-8.8Z"/>
          <path id="path2606" class="cls-16" d="m144.16,67.27c-1.25,1.92-3.54,2.72-5.35,4.96"/>
          <path id="path2608" class="cls-16" d="m136.48,72.16c0,1.79.31,3.25.89,4.45"/>
          <path id="path2610" class="cls-16" d="m134.48,75.16c.45,1.74.97,3.44,2,4.89"/>
          <path id="path2612" class="cls-16" d="m133.25,78.27c.21,1.96,1.39,3.93,2.78,5.89"/>
          <path id="path2616" class="cls-16" d="m132.36,83.27c.99,2.93,2.17,5.69,4.33,7.45"/>
          <path id="path2618" class="cls-16" d="m134.81,91.72c1.16,2.31,2.6,4.5,5.22,6.22"/>
          <path id="path2620" class="cls-16" d="m139.14,99.95c1.28,2.02,2.79,3.61,4.67,4.45"/>
          <path id="path2622" class="cls-16" d="m142.59,106.39c1.44,2.04,2.58,4.7,4.56,5.67"/>
          <path id="path2624" class="cls-12" d="m161.26,118.95c.1,2.61,1.31,4.83,3.69,6.24.91-.51-.56-3.72-.1-4.83-1.33.37-2.39-.89-3.59-1.41Z"/>
          <path id="path2626" class="cls-12" d="m165.78,121.4c-.15,4.21,1.17,7.18,3.89,8.97,1.11-.96-1.65-5.79-.34-7.38-1.51-.09-2.46-.93-3.55-1.59Z"/>
          <path id="path2628" class="cls-12" d="m169.53,123.29c.38,3.47,1.14,8.05,3.24,8.43.57-1.57-.96-5.91.14-6.27-1.69-.16-2.41-1.29-3.39-2.16Z"/>
          <path id="path2630" class="cls-12" d="m173.28,125.81l2.95,2.09c-1.73.08,1.03,4.54.5,6.77-3.43-.82-3.08-5.43-3.46-8.86Z"/>
          <path id="path2632" class="cls-12" d="m176.52,127.76c1.22-.79,2.29,0,3.31,1.3-1.93,2.03,2.4,7.69,2.09,9.08-3.44.02-6.41-8.66-5.4-10.38Z"/>
          <path id="path2634" class="cls-12" d="m180.19,129.34c-.47,4.5,2.96,10.21,7.42,12.25.98-.88-5.08-6.29-4.04-11.53-.82.07-1.13.65-3.39-.72Z"/>
          <path id="path2636" class="cls-12" d="m184.16,131c1.56,1.52,3.12,1.66,4.68,1.87-.91,1.72,3.67,8.58,3.24,10.16-5.5-3.29-7.41-7.21-7.93-12.03Z"/>
          <path id="path2638" class="cls-12" d="m189.35,132.94c1.09.43,2.26,1.35,3.17.72l3.6,10.45c-3.07,1.22-5.56-7.08-7.13-11.03"/>
          <path id="path2592" class="cls-10" d="m107.25,47.81h25.8c2.51.95,1.9,4.68,4.11,6.36-11.15-1.9-21.56-3.94-29.91-6.36Z"/>
          <path id="path2598" class="cls-17" d="m122.83,49.52l7.7-.11"/>
          <path id="path2600" class="cls-13" d="m138.83,50.44c0,.65-.58,1.17-1.29,1.17s-1.29-.52-1.29-1.17.58-1.17,1.29-1.17,1.29.52,1.29,1.17Z"/>
          <path id="path2602" class="cls-15" d="m137.79,50.39c0,.24-.19.43-.43.43s-.43-.19-.43-.43.19-.43.43-.43.43.19.43.43h0Z"/>
        </g>
        <path id="path3231" class="cls-12" d="m190.91,143.65c1.22-.75,3.65,2.5,5.51,1.12.68,1.57,1.08,3.64,1.54,5.35.78,4.15,1.32,7.3.5,13.1l-1.41,2.99c.78-10.61-2.32-16.98-6.14-22.55Z"/>
      </g>
      <g id="g3281">
        <path id="path3261" class="cls-11" d="m164.08,132.55l4.9,3.46c-4.99,2.04.75,9.34-3.9,10.96.79-.13,1.57-.45,2.16-2.16.01,2.38-1.09,5.16-2.45,5.48,1.83-.61,1.6-1.44,2.16-2.31-2.49,7.6-3.32,14.96-4.47,22.36.22,2.13-1.48,4.65,1.85,5.5,3.14.49,6.06-1.75,7.09-.16l-.29,2.16c-.83.67-1.62.06-3.77-.09-2.29-.15-5.13-.22-6.19-.92-2.85.25-6.8,4.27-11.11,4.04-1.07.4-1.62.76-2.89.56l-.62-1.91c1.6-.61,2.79.29,4.16.05,1.59-.28,3.22-1.02,4.97-1.72-11.65.92-10.83-.04-13.75.64-1.35.63-2.61.72-3.75.14l-.46-1.89c1.82-.83,3.84-1.03,6.27-.05,1.68.78,5.55.03,8.39-.15-1.03-1.1-3.4-1.56-6.22-1.86l-1.59.14.14-2.02c1.76-.11,3.62.16,5.77,1.59,2.7.53,7.39,2.19,8.8-1.3,1.43-6.84,3.2-13.34,3.17-21.64-.37-2.64-.59-4.23.72-7.03,2.02-2.96.6-8.2.87-11.87Z"/>
        <path id="path3263" class="cls-1" d="m144.73,172.97c-.53-.76-4.36.34-4.31,1.45,1.37-.67,2.84-.25,4.31.2v-1.65Z"/>
        <path id="path3265" class="cls-1" d="m137.83,176.89l.31,1.76c-2.13-.33-3.31.21-4.19,1.02.81-1.25,1.27-2.73,3.88-2.78Z"/>
        <path id="path3267" class="cls-1" d="m146.61,179.64c-2.28.57-2.9,1.76-3.21,3.06.99-1.07,2.25-1.53,3.76-1.45l-.55-1.61Z"/>
        <path id="path3269" class="cls-1" d="m171.71,175.91c2.35.14,3.17,1.2,3.72,2.41-1.17-.86-2.49-1.09-3.97-.73l.24-1.68Z"/>
      </g>
      <g id="g3288">
        <path id="path3290" class="cls-2" d="m165.72,128.95l6.27,3.52c-3.54,3.25,2,17.05-2.39,19.28.77-.24,1.49-.65,1.85-2.43.33,2.36-.39,5.26-1.69,5.76,1.73-.85,1.39-1.64,1.83-2.58-1.44,7.86-1.28,16.97-1.43,24.46.5,2.08-.85,4.81,2.57,5.2,3.18.06,5.77-2.55,7.01-1.11v2.18c-.73.78-1.6.27-3.74.42-2.29.16-5.11.47-6.25-.08-2.79.63-5.87,4.37-10.23,5.91-1.01.54-1.21,1.57-2.49,1.54l-.87-1.81c1.5-.82,2.73-.26,3.83-1.11,1.18-.91,2.81-1.86,4.46-2.79-11.42,2.47-10.74,1.41-13.53,2.48-1.25.8-2.48,1.07-3.7.65l-.71-1.81c1.69-1.07,3.67-1.54,6.21-.89,1.77.55,5.5-.71,8.29-1.28-1.17-.96-3.58-1.09-6.42-1.01l-1.55.36-.13-2.02c1.73-.34,3.61-.32,5.93.8,2.74.17,7.62,1.18,8.55-2.47.5-6.97,1.39-15.35.24-23.57-.72-2.57-1.16-4.12-.23-7.06,1.61-3.96-.32-16.67-1.68-20.53Z"/>
        <path id="path3292" class="cls-5" d="m152.91,181.96c-.63-.68-4.27.92-4.08,2.02,1.27-.85,2.78-.63,4.3-.38l-.22-1.63Z"/>
        <path id="path3294" class="cls-5" d="m146.6,186.77l.55,1.71c-2.16-.04-3.25.65-4.02,1.57.64-1.35.9-2.88,3.47-3.28Z"/>
        <path id="path3296" class="cls-5" d="m156.03,189.39c-2.18.87-2.63,2.13-2.77,3.46.84-1.19,2.02-1.82,3.53-1.94l-.76-1.52Z"/>
        <path id="path3298" class="cls-5" d="m180.04,181.25c2.35-.17,3.3.76,4.01,1.89-1.27-.7-2.62-.75-4.03-.19l.02-1.7Z"/>
      </g>
    </g>
  </g>
</svg>